<svg width="1238" height="738" viewBox="0 0 1238 738" fill="none" xmlns="http://www.w3.org/2000/svg">
<path d="M320 256V172L382 42H510L576 108V292L524 344H408L320 256Z" fill="#C4C4C4"/>
<path d="M320 172V256M320 172L382 42M320 172L576 108M320 256L408 344M320 256L576 292M408 344H524M408 344L382 42M524 344L576 292M524 344L576 108M576 292V108M576 108L510 42H382" stroke="white"/>
<path d="M576 618L705 489H876L955 568V650L914 691H642L576 618Z" fill="#C4C4C4"/>
<path d="M705 489L576 618L642 691M705 489H876M705 489L669.757 602M876 489L955 568M876 489L669.757 602M955 568V650L914 691M955 568L820 656.747M914 691H642M914 691L820 656.747M642 691L669.757 602M669.757 602L820 656.747" stroke="white"/>
<path d="M376 516V696H50V546L188 533.301L292 523.73L376 516Z" fill="#C4C4C4"/>
<path d="M376 696V516L292 523.73M376 696H50M376 696L292 523.73M50 696V546L188 533.301M50 696L188 533.301M188 533.301L292 523.73" stroke="white"/>
<path d="M900 254V66H1186V276L900 254Z" fill="#C4C4C4"/>
<path d="M900 254V66H1186M900 254L1186 276V66M900 254L1186 66" stroke="white"/>
</svg>
